<svg version="1.0" xmlns="http://www.w3.org/2000/svg" width="768" height="768" viewBox="0 0 7680 7680"><path d="M0 3840V0h7680v7680H0V3840z" fill="#222"/><path d="M6540 5014c0-4 25-102 55-219l55-212v-333h380l1 153v152l-118 232-118 233h-127c-71 0-128-3-128-6zm-4570-999v-665h220v193l31-46c41-63 91-104 169-141 62-30 70-31 195-31 129 0 131 0 193 34 75 41 115 84 153 166 52 112 59 190 59 696v459h-220v-447c0-488-6-551-55-625-42-63-93-90-180-96-163-10-262 58-317 218-21 63-22 81-26 508l-3 442h-219v-665zm1510 580v-85h440l-2-492-3-493-173-3-173-2 3-83 3-82h560l3 578 2 577h430v170H3480v-85zm2125 71c-131-33-214-111-268-253-22-57-22-67-27-738l-5-680-178-3-178-2 3-83 3-82h570l5 755 5 755 24 48c46 94 109 117 319 117h112v180l-167-1c-97 0-189-6-218-13zM374 4277c-3-8-4-54-2-103l3-89h1250l3 103 3 102h-626c-511 0-627-2-631-13zm6266-712v-215h370v430h-370v-215zM374 3717c-3-8-4-54-2-103l3-89 628-3 627-2v210h-625c-511 0-627-2-631-13zm3546-747v-141l108 3 107 3 3 138 3 137h-221v-140z" fill="#fff"/></svg>